<svg width="800" height="800" viewBox="0 0 800 800" fill="none" xmlns="http://www.w3.org/2000/svg">
<g clip-path="url(#clip0_175_2)">
<rect width="800" height="800" rx="76" fill="white"/>
<path d="M308.971 588.868C308.971 588.868 282.591 604.209 327.745 609.4C382.448 615.641 410.406 614.746 470.69 603.336C470.69 603.336 486.539 613.274 508.673 621.881C373.534 679.8 202.826 618.527 308.971 588.868ZM292.458 513.288C292.458 513.288 262.87 535.19 308.058 539.864C366.493 545.892 412.641 546.385 492.495 531.009C492.495 531.009 503.541 542.206 520.909 548.33C357.516 596.108 175.527 552.098 292.458 513.288Z" fill="#5382A1"/>
<path d="M431.671 385.08C464.969 423.416 422.924 457.917 422.924 457.917C422.924 457.917 507.47 414.27 468.642 359.613C432.376 308.64 404.565 283.317 555.123 195.998C555.125 195.996 318.796 255.02 431.671 385.08Z" fill="#E76F00"/>
<path d="M610.403 644.771C610.403 644.771 629.925 660.858 588.903 673.3C510.899 696.931 264.241 704.066 195.721 674.244C171.09 663.526 217.28 648.656 231.81 645.536C246.963 642.25 255.623 642.862 255.623 642.862C228.23 623.565 78.5687 680.75 179.602 697.13C455.135 741.813 681.874 677.009 610.403 644.771ZM321.657 434.979C321.657 434.979 196.192 464.779 277.227 475.6C311.442 480.181 379.65 479.145 443.182 473.822C495.105 469.442 547.245 460.131 547.245 460.131C547.245 460.131 528.936 467.972 515.69 477.015C388.282 510.525 142.153 494.934 213.01 460.659C272.934 431.693 321.657 434.979 321.657 434.979ZM546.727 560.785C676.244 493.483 616.362 428.805 574.563 437.52C564.318 439.653 559.75 441.5 559.75 441.5C559.75 441.5 563.555 435.542 570.815 432.964C653.505 403.893 717.098 518.704 544.123 564.179C544.123 564.179 546.13 562.389 546.727 560.785Z" fill="#5382A1"/>
<path d="M468.641 55C468.641 55 540.37 126.75 400.61 237.087C288.538 325.593 375.054 376.057 400.564 433.717C335.147 374.692 287.139 322.735 319.346 274.376C366.618 203.391 497.582 168.974 468.641 55Z" fill="#E76F00"/>
<path d="M334.384 743.157C458.704 751.115 649.61 738.741 654.13 679.919C654.13 679.919 645.441 702.217 551.387 719.928C445.279 739.895 314.406 737.565 236.786 724.768C236.789 724.764 252.677 737.917 334.384 743.157Z" fill="#5382A1"/>
</g>
<defs>
<clipPath id="clip0_175_2">
<rect width="800" height="800" fill="white"/>
</clipPath>
</defs>
</svg>
